PathFileType	4	(X/Y/Z)	/Users/visionmauri/2_5_3_f_1_Sports2D/2_5_3_f_1_Sports2D_px_person00.trc
DataRate	CameraRate	NumFrames	NumMarkers	Units	OrigDataRate	OrigDataStartFrame	OrigNumFrames
30.0	30.0	8	22	m	30.0	85	341
Frame#	Time	Hip			RHip			RKnee			RAnkle			RBigToe			RSmallToe			RHeel			LHip			LKnee			LAnkle			LBigToe			LSmallToe			LHeel			Neck			Head			Nose			RShoulder			RElbow			RWrist			LShoulder			LElbow			LWrist			
		X1	Y1	Z1	X2	Y2	Z2	X3	Y3	Z3	X4	Y4	Z4	X5	Y5	Z5	X6	Y6	Z6	X7	Y7	Z7	X8	Y8	Z8	X9	Y9	Z9	X10	Y10	Z10	X11	Y11	Z11	X12	Y12	Z12	X13	Y13	Z13	X14	Y14	Z14	X15	Y15	Z15	X16	Y16	Z16	X17	Y17	Z17	X18	Y18	Z18	X19	Y19	Z19	X20	Y20	Z20	X21	Y21	Z21	X22	Y22	Z22
85	2.841666666666667	580.1397086406145	822.2525245899142	0.0	625.5950023355905	842.4345180906373	0.0	620.6237064318452	1029.1509314212879	0.0	599.0283105550176	1212.279603987604	0.0	601.3928371016837	1227.515073899522	0.0	631.9356859313376	1239.1732528035143	0.0	591.4367544296462	1247.7791403779995	0.0	535.3377836340895	833.5594187787206	0.0	530.8294138631721	899.9306883646602	0.0	516.098188706018	1006.0759035850153	0.0	526.2480061190843	1029.5842859496372	0.0	495.9609626607812	1044.9310367301314	0.0	518.4245189611956	1045.7797631898638	0.0	617.51375784384	567.5446481085919	0.0	633.0925011750725	465.5237053261835	0.0	626.8635613738543	533.4500329741495	0.0	697.5325561332211	603.5329967420653	0.0	740.0473600688031	703.8192582384487	0.0	743.742809895963	810.745285094338	0.0	536.7182551913769	589.4780482153374	0.0	463.6470578164442	701.2236424517874	0.0	412.2617424506077	795.7812639540944	0.0
86	2.875098039215686	580.972193071511	822.8896372374859	0.0	626.1532306235035	842.4622062318991	0.0	619.5977273219662	1028.870119551141	0.0	598.9708914635172	1212.3197934829288	0.0	600.7608148470769	1226.3756478579153	0.0	631.6141934868604	1239.9153387395145	0.0	591.7664279007615	1247.7953798293727	0.0	536.5112364782775	833.8907630612995	0.0	532.3376237649825	897.4813201612709	0.0	516.1005544383503	1012.2713926641741	0.0	524.8424464308177	1032.8877992507726	0.0	495.98366647872166	1048.5635794677612	0.0	517.3223124940469	1051.0329006784148	0.0	617.0619172168003	568.2872023204318	0.0	630.9151383229973	466.069570601645	0.0	625.4569291058583	532.1227183230111	0.0	697.0054062152568	604.017220746486	0.0	739.2672910297619	704.3261104383479	0.0	742.0683159756668	811.11287322337	0.0	536.3988999782026	589.9992026577725	0.0	462.79295247010793	702.2573410043764	0.0	412.21347677482123	794.5790373261875	0.0
87	2.908529411764706	582.2406768120069	822.9800887616167	0.0	626.7157516263222	842.5528527156613	0.0	618.7111248868006	1027.870367911192	0.0	599.1581231253286	1213.1390426468768	0.0	601.4671714046335	1225.5998991219462	0.0	632.9833787446337	1241.0383350323364	0.0	591.8973466283882	1247.854813511232	0.0	537.8700815588904	833.597273725569	0.0	532.7843978684411	899.4540328889539	0.0	513.3793342645738	1022.1126072977328	0.0	522.6582701901782	1038.670469236319	0.0	495.8734418476552	1056.755519863194	0.0	514.9389888431137	1060.1473261503625	0.0	615.6487369001044	568.6756629147757	0.0	629.6315373934393	466.5281251658248	0.0	623.8577123877162	530.8083511765218	0.0	696.0052172215222	605.0514239122589	0.0	737.2048678051071	706.4136343862447	0.0	740.4046279832855	811.0701855704843	0.0	536.1872235565655	590.7641972367578	0.0	462.1276241815937	702.5067578691527	0.0	411.39497949645585	794.6401193029661	0.0
88	2.9419607843137254	583.647642186552	823.5575285923045	0.0	627.785578412179	842.9119396074565	0.0	618.2873747050393	1026.8191992436314	0.0	599.3805002388247	1213.8360938439832	0.0	603.8544062240184	1225.070203697494	0.0	634.848436924175	1241.2267537730575	0.0	591.9650723675054	1247.8019417911448	0.0	539.2600897178918	833.4243870658782	0.0	532.0340573633488	903.4512918140323	0.0	510.0194485296288	1035.3775392955317	0.0	520.5129346923762	1051.9804909040167	0.0	494.8433374805579	1069.486783302438	0.0	512.4180938531066	1071.6268884422311	0.0	614.1291126995624	568.5113533944775	0.0	628.8326614147267	467.49164306484784	0.0	621.374437383827	531.1377410926935	0.0	694.8349310864402	606.4866798013961	0.0	735.1351208094942	710.5737398441061	0.0	738.0094040005624	810.9804944438325	0.0	536.0316236014022	592.3655396467199	0.0	461.09520978653705	703.1288274294094	0.0	410.21790424234405	795.4788878002377	0.0
89	2.9753921568627453	584.7489100172392	825.0175443882673	0.0	629.3050902593202	842.9357249594636	0.0	618.3913685930335	1026.7714171186367	0.0	599.4887033081021	1213.843556276466	0.0	606.4417218615474	1224.4504938669606	0.0	635.297835519678	1240.1724460420512	0.0	592.1254886294577	1247.7587636880862	0.0	540.2772594690493	833.4644855719238	0.0	531.4021712476929	906.2887248881734	0.0	508.38371789216416	1050.3606209993	0.0	518.558320439122	1073.0613624396829	0.0	493.2385124615411	1083.3760270279315	0.0	511.0238124849175	1082.4850590186218	0.0	613.4057848790098	568.5339033585196	0.0	627.5158501032215	468.5934657054431	0.0	618.0121656502394	533.0693779420486	0.0	694.0020478655294	608.4939416184866	0.0	733.7377262438077	717.6166616258992	0.0	733.9645278175544	810.7903006730563	0.0	535.2950733553832	594.6018765939147	0.0	459.4774647563168	705.167638185865	0.0	409.3286303995526	796.4357359620393	0.0
90	3.0088235294117647	585.3125761803948	826.6322071095162	0.0	630.3773846537798	841.9908869869594	0.0	618.4691393697603	1027.5761201152645	0.0	599.417897159891	1213.95767149654	0.0	607.8749732701854	1224.2437727200786	0.0	634.429001726897	1239.4882819844156	0.0	592.1930600119513	1247.7548856665492	0.0	540.6195970064506	832.9819459238515	0.0	531.4198690628142	911.3380408244234	0.0	507.5784378161529	1063.8997913875248	0.0	516.9683237170333	1096.0186141385855	0.0	491.6726668309699	1094.6899093372997	0.0	510.413426930435	1091.6074190506913	0.0	613.064245999563	569.855329721525	0.0	625.3011434765568	468.9727917724127	0.0	615.3757073902934	534.8736912876695	0.0	693.5236149503805	611.5024441255812	0.0	732.4014006772907	726.9685626191937	0.0	728.5457107656166	811.1949702054974	0.0	533.7879497544848	596.8035374211823	0.0	458.1071006593212	707.8583835185719	0.0	408.4303054794281	797.4431046277393	0.0
91	3.0422549019607845	585.2158286234186	827.8989328647328	0.0	630.3835837814504	840.6913548223722	0.0	617.8984474512466	1028.3124993101167	0.0	599.0538850148521	1214.8169739352354	0.0	608.2353377827354	1224.6111396674148	0.0	633.92223969206	1239.864472993477	0.0	591.7986232944035	1247.683114240231	0.0	540.5608232268897	831.8295966095646	0.0	531.6290773698228	918.4417496457932	0.0	506.5106263332735	1072.486930235408	0.0	516.7647349137003	1112.566094691456	0.0	490.8968273071022	1100.0804069401001	0.0	509.37262301769033	1098.4316578032906	0.0	612.178617412571	572.4976531086356	0.0	622.5670940974252	468.76626210355846	0.0	613.9219054461668	535.3854834901332	0.0	692.8250845467329	614.9985706503143	0.0	730.1680499524967	735.9697975810786	0.0	722.818802001765	812.8136097996053	0.0	532.0330204982972	598.890871184225	0.0	457.5216111520082	710.0618202934693	0.0	406.90409143830686	798.862136840395	0.0
92	3.075686274509804	584.5223944203311	828.6620771032278	0.0	629.6554501386023	840.1075945391374	0.0	616.831793925789	1028.7990362794424	0.0	598.6197064194383	1215.6707037504118	0.0	608.1506915821244	1224.987575356096	0.0	634.217048032626	1240.3124752346216	0.0	591.123927807426	1247.5361174519646	0.0	540.3352537616354	830.8559569214806	0.0	531.5168368300829	921.8402765606116	0.0	505.4686073124489	1076.3212802972384	0.0	518.462300808399	1117.6165025353716	0.0	491.9033682906767	1100.3775947982326	0.0	507.77736293371737	1103.8584570516452	0.0	610.3412742899776	575.284857387227	0.0	619.6524110369178	468.81546750513087	0.0	611.6680325767202	535.3276181637727	0.0	691.6180852149639	617.9940370718799	0.0	726.5834695669873	742.5376585138885	0.0	717.2104641176054	815.0710596004776	0.0	529.9188908257697	601.5237351522932	0.0	456.79602722178043	712.3253898010923	0.0	405.1201659915749	800.8822668945551	0.0
